<?xml version="1.0" encoding="UTF-8" standalone="no"?>
<svg
   xmlns:dc="http://purl.org/dc/elements/1.1/"
   xmlns:cc="http://creativecommons.org/ns#"
   xmlns:rdf="http://www.w3.org/1999/02/22-rdf-syntax-ns#"
   xmlns:svg="http://www.w3.org/2000/svg"
   xmlns="http://www.w3.org/2000/svg"
   xmlns:sodipodi="http://sodipodi.sourceforge.net/DTD/sodipodi-0.dtd"
   xmlns:inkscape="http://www.inkscape.org/namespaces/inkscape"
   viewBox="0 0 512 512"
   id="svg5260"
   version="1.1"
   inkscape:version="0.91 r13725"
   sodipodi:docname="shirt_bt.svg"
   inkscape:export-filename="C:\Users\Lucas\Desktop\temp\icons\game-icons.net\workbench\merchant\classes\shirt.png"
   inkscape:export-xdpi="11.25"
   inkscape:export-ydpi="11.25">
  <metadata
     id="metadata5270">
    <rdf:RDF>
      <cc:Work
         rdf:about="">
        <dc:format>image/svg+xml</dc:format>
        <dc:type
           rdf:resource="http://purl.org/dc/dcmitype/StillImage" />
        <dc:title></dc:title>
      </cc:Work>
    </rdf:RDF>
  </metadata>
  <defs
     id="defs5268" />
  <sodipodi:namedview
     pagecolor="#ffffff"
     bordercolor="#666666"
     borderopacity="1"
     objecttolerance="10"
     gridtolerance="10"
     guidetolerance="10"
     inkscape:pageopacity="0"
     inkscape:pageshadow="2"
     inkscape:window-width="1312"
     inkscape:window-height="648"
     id="namedview5266"
     showgrid="false"
     inkscape:zoom="0.92187499"
     inkscape:cx="105.12092"
     inkscape:cy="332.8097"
     inkscape:window-x="0"
     inkscape:window-y="0"
     inkscape:window-maximized="0"
     inkscape:current-layer="svg5260" />
  <g
     id="g7189"
     transform="translate(-481.92374,85.544266)"
     style="fill:#000000">
    <path
       style="fill:#000000"
       d="m 840.34774,294.02658 c 3.016,21.5 6.925,42.273 12.064,61.57 -52.01,21.488 -127.94,27.74 -188.018,13.318 l -15.048,-4.157 c -9.19,-2.9 -17.885,-6.342 -25.91,-10.36 5.285,-19.45 9.54,-39.696 12.94,-60.28 15.244,5.214 34.004,8.556 54.315,10.453 l 16.023,1.194 c 10.836,0.607 21.945,0.864 33.07,0.81 37.896,-0.183 74.855,-3.797 100.563,-12.546 z"
       id="path5264"
       inkscape:connector-curvature="0" />
    <path
       id="path7107"
       d="m 737.89844,-35.796875 c -39.34784,0 -86.41053,13.363643 -115.06446,27.363281 -30.46947,12.3808953 -55.27147,27.62431 -72.97851,55 -23.819,36.825 -35.38186,93.709424 -27.50586,184.232424 22.608,7.845 42.95984,5.49969 63.83984,-1.57031 -6.543,-29.888 -5.48718,-59.75602 1.88282,-84.16602 8.061,-26.703 24.27492,-48.223594 48.04492,-51.933594 l 10.50195,-1.640625 0.27734,10.626949 c 0.205,7.742 0.34446,15.80368 0.43946,24.01368 l 0.10351,23.92773 c -0.141,33.347 -1.44684,69.31388 -4.83984,105.54688 21.369,6.942 56.12394,11.19736 90.83594,11.44336 l 17.42578,-0.22071 c 32.331,-1.04 63.46305,-5.48937 82.12305,-11.60937 -4.14302,-55.533 -4.41977,-111.57074 -5.75977,-156.677738 l -0.36914,-12.445312 12.05273,3.123047 c 23.648,6.128 39.99305,27.960283 48.37305,54.988283 7.654,24.68 8.91583,54.46894 2.42383,84.33594 16.296,5.159 32.41036,6.49461 48.69336,4.4746 l 16.67578,-2.22851 c 3.913,-71.306 -5.43367,-141.781094 -23.76367,-175.371094 L 914.60156,31.25 C 896.98628,10.943039 874.3409,-0.585181 847.63867,-10.726562 822.06947,-23.833858 778.0497,-35.796875 737.89844,-35.796875 Z m 0,11.560547 c 24.61519,0 50.67722,7.360502 73.05859,17.1191405 C 799.12072,3.3343142 784.53272,10.563078 769.00781,14.693359 L 739.24414,80.310547 713.32422,16.314453 C 695.29048,12.78817 678.2212,5.1061157 664.86914,-7.0859375 688.27331,-17.108756 714.45566,-24.236328 737.89844,-24.236328 Z m 2.19531,108.179687 13.31445,20.191411 -13.2539,19.15429 -13.37696,-19.15429 z m 0,45.062501 13.31445,20.19336 -13.2539,19.1543 -13.37696,-19.1543 z m 0,44.47461 13.31445,20.19336 -13.2539,19.15429 -13.37696,-19.15429 z m 0,45.01758 13.31445,20.19336 -13.2539,19.15429 -13.37696,-19.15429 z"
       style="fill:#000000"
       inkscape:connector-curvature="0"
       sodipodi:nodetypes="scsccccccccccccccccccccccsscccccscccccccccccccccccccc" />
    <path
       style="fill:#000000"
       d="m 835.16024,265.03489 c 0.627,6.774 1.322,13.517 2.092,20.215 -21.064,7.54 -59.77,12.824 -98.217,13.01 -38.48,0.186 -77.818,-4.65 -100.44,-12.733 0.94,-6.74 1.792,-13.502 2.568,-20.27 26.296,8.143 62.176,11.137 98.186,10.966 35.813,-0.17 70.754,-3.4 95.812,-11.188 z"
       id="path7105"
       inkscape:connector-curvature="0" />
  </g>
</svg>
