<?xml version="1.0" encoding="UTF-8" standalone="no"?>
<svg
   xmlns:dc="http://purl.org/dc/elements/1.1/"
   xmlns:cc="http://creativecommons.org/ns#"
   xmlns:rdf="http://www.w3.org/1999/02/22-rdf-syntax-ns#"
   xmlns:svg="http://www.w3.org/2000/svg"
   xmlns="http://www.w3.org/2000/svg"
   xmlns:sodipodi="http://sodipodi.sourceforge.net/DTD/sodipodi-0.dtd"
   xmlns:inkscape="http://www.inkscape.org/namespaces/inkscape"
   viewBox="0 0 512 512"
   id="svg4191"
   version="1.1"
   inkscape:version="0.91 r13725"
   sodipodi:docname="boot.svg"
   inkscape:export-filename="C:\Users\Lucas\Desktop\temp\icons\game-icons.net\game-icons.net.svg-bt\boot.png"
   inkscape:export-xdpi="11.25"
   inkscape:export-ydpi="11.25">
  <metadata
     id="metadata4199">
    <rdf:RDF>
      <cc:Work
         rdf:about="">
        <dc:format>image/svg+xml</dc:format>
        <dc:type
           rdf:resource="http://purl.org/dc/dcmitype/StillImage" />
        <dc:title />
      </cc:Work>
    </rdf:RDF>
  </metadata>
  <defs
     id="defs4197" />
  <sodipodi:namedview
     pagecolor="#ffffff"
     bordercolor="#666666"
     borderopacity="1"
     objecttolerance="10"
     gridtolerance="10"
     guidetolerance="10"
     inkscape:pageopacity="0"
     inkscape:pageshadow="2"
     inkscape:window-width="1366"
     inkscape:window-height="749"
     id="namedview4195"
     showgrid="false"
     inkscape:zoom="0.40120023"
     inkscape:cx="271.451"
     inkscape:cy="195.52658"
     inkscape:window-x="-4"
     inkscape:window-y="-4"
     inkscape:window-maximized="1"
     inkscape:current-layer="svg4191" />
  <path
     d="m 155.67932,111.51277 c 24.57002,0 42.24553,1.77229 54.44409,5.44237 12.19729,3.66879 18.72621,8.7718 22.96932,16.3066 7.77298,13.80567 6.76902,39.36042 5.36234,77.21298 -12.73129,-5.69206 -30.37734,-7.25625 -50.06332,-6.98221 -22.65559,0.31565 -47.82491,3.66238 -69.98876,9.20398 -11.96167,-29.96051 -18.11986,-58.3024 -24.33055,-86.65773 -0.35408,28.04288 -0.62748,56.09471 6.18188,84.13632 -16.877727,5.8547 -29.188349,15.18547 -36.194906,25.25128 -7.604576,-19.94721 -12.865743,-37.36213 -15.127204,-51.92268 -2.748073,-17.68639 -1.262622,-31.1207 4.401272,-41.23773 5.663896,-10.11638 15.731623,-17.65053 32.433908,-22.88992 16.70293,-5.23939 39.81888,-7.86262 69.91064,-7.86262 z m 37.35572,103.92347 c 5.84125,0.0557 11.42383,0.39057 16.60881,0.94121 6.31057,49.7944 7.53862,100.24188 2.86076,162.99103 -16.99553,14.7776 -42.72893,19.97024 -67.53009,26.1912 20.84105,0.83746 41.77812,0.12484 63.06735,-6.14348 -5.33351,11.44049 -15.06446,16.02616 -28.17222,16.02616 l -165.17117,0 c -23.7555829,0 -14.41585235,-25.74429 -1.981016,-42.85763 14.228893,-19.58289 42.036794,-22.0883 64.80891,-37.47737 l -0.08067,0.14086 c 24.950346,-9.89741 49.903256,0.26251 74.852306,20.20845 -12.88238,-19.16224 -30.92093,-35.86645 -51.34194,-36.1565 -2.39593,-0.0339 -4.83027,0.17673 -7.28381,0.62107 1.9695,-5.29317 3.59453,-10.49607 4.90197,-15.6074 21.18807,-14.39985 47.17694,-10.87832 75.55277,1.60069 -14.33198,-12.49438 -31.59514,-22.47374 -48.30127,-22.80989 -8.4728,-0.17095 -16.79961,2.14622 -24.53032,7.86262 3.47415,-22.69915 0.72992,-44.0127 -6.04294,-65.60927 2.91583,-1.48543 6.06727,-2.85564 9.46458,-4.04015 l 7.92345,-1.36123 1.73963,6.18251 c 22.63637,-6.35666 50.21058,-10.35073 74.19218,-10.68495 1.49824,-0.0205 2.99266,-0.0334 4.46273,-0.0193 z"
     id="path4193"
     inkscape:connector-curvature="0" />
  <path
     d="m 356.32068,111.51277 c -24.57001,0 -42.24552,1.77228 -54.44409,5.44237 -12.19729,3.66879 -18.7262,8.7718 -22.96932,16.3066 -7.77297,13.80567 -6.76902,39.36042 -5.36232,77.21298 12.73127,-5.69206 30.37733,-7.25625 50.06331,-6.98221 22.65559,0.31565 47.82491,3.66238 69.98876,9.20398 11.96166,-29.96051 18.11985,-58.3024 24.33054,-86.65773 0.35408,28.04288 0.62747,56.09471 -6.18188,84.13632 16.87773,5.8547 29.18836,15.18547 36.19491,25.25128 7.60457,-19.94721 12.86574,-37.36213 15.1272,-51.92268 2.74807,-17.68639 1.26263,-31.1207 -4.40127,-41.23773 -5.66389,-10.11638 -15.73162,-17.65053 -32.43391,-22.88992 -16.70292,-5.2394 -39.81887,-7.86262 -69.91065,-7.86262 z m -37.35571,103.92347 c -5.84126,0.0557 -11.42385,0.39057 -16.60881,0.94121 -6.31058,49.7944 -7.53863,100.24188 -2.86076,162.99103 16.99553,14.7776 42.72893,19.97024 67.53008,26.1912 -20.84104,0.83746 -41.77812,0.12484 -63.06734,-6.14348 5.33351,11.44049 15.06445,16.02616 28.17222,16.02616 l 165.17116,0 c 23.75558,0 14.41586,-25.74429 1.98102,-42.85763 -14.2289,-19.58289 -42.0368,-22.0883 -64.8089,-37.47737 l 0.0806,0.14086 c -24.95035,-9.89741 -49.90326,0.26251 -74.85231,20.20845 12.88238,-19.16224 30.92093,-35.86645 51.34195,-36.1565 2.39592,-0.0339 4.83025,0.17673 7.28379,0.62107 -1.96949,-5.29317 -3.59452,-10.49607 -4.90196,-15.6074 -21.18807,-14.39985 -47.17694,-10.87832 -75.55276,1.60069 14.33196,-12.49438 31.59514,-22.47374 48.30126,-22.80989 8.47279,-0.17095 16.79961,2.14622 24.53031,7.86262 -3.47415,-22.69915 -0.72991,-44.0127 6.04296,-65.60927 -2.91584,-1.48543 -6.06728,-2.85564 -9.4646,-4.04015 l -7.92344,-1.36123 -1.73963,6.18251 c -22.63637,-6.35666 -50.21057,-10.35073 -74.19218,-10.68495 -1.49825,-0.0205 -2.99265,-0.0334 -4.46273,-0.0193 z"
     id="path4193-1"
     inkscape:connector-curvature="0" />
</svg>
