<?xml version="1.0" encoding="UTF-8" standalone="no"?>
<!-- Created with Inkscape (http://www.inkscape.org/) -->

<svg
   xmlns:dc="http://purl.org/dc/elements/1.1/"
   xmlns:cc="http://creativecommons.org/ns#"
   xmlns:rdf="http://www.w3.org/1999/02/22-rdf-syntax-ns#"
   xmlns:svg="http://www.w3.org/2000/svg"
   xmlns="http://www.w3.org/2000/svg"
   xmlns:sodipodi="http://sodipodi.sourceforge.net/DTD/sodipodi-0.dtd"
   xmlns:inkscape="http://www.inkscape.org/namespaces/inkscape"
   width="512"
   height="512"
   viewBox="0 0 512.00001 512.00001"
   id="svg2"
   version="1.1"
   inkscape:version="0.91 r13725"
   sodipodi:docname="headband.svg"
   inkscape:export-filename="C:\Users\Lucas\Desktop\temp\icons\game-icons.net\workbench\merchant\headband.png"
   inkscape:export-xdpi="11.25"
   inkscape:export-ydpi="11.25">
  <defs
     id="defs4" />
  <sodipodi:namedview
     id="base"
     pagecolor="#ffffff"
     bordercolor="#666666"
     borderopacity="1.0"
     inkscape:pageopacity="0.0"
     inkscape:pageshadow="2"
     inkscape:zoom="0.7"
     inkscape:cx="447.0465"
     inkscape:cy="358.36333"
     inkscape:document-units="px"
     inkscape:current-layer="layer1"
     showgrid="false"
     inkscape:window-width="1366"
     inkscape:window-height="749"
     inkscape:window-x="-4"
     inkscape:window-y="-4"
     inkscape:window-maximized="1"
     showguides="false"
     units="px" />
  <metadata
     id="metadata7">
    <rdf:RDF>
      <cc:Work
         rdf:about="">
        <dc:format>image/svg+xml</dc:format>
        <dc:type
           rdf:resource="http://purl.org/dc/dcmitype/StillImage" />
        <dc:title></dc:title>
      </cc:Work>
    </rdf:RDF>
  </metadata>
  <g
     inkscape:label="Layer 1"
     inkscape:groupmode="layer"
     id="layer1"
     transform="translate(0,-540.36216)">
    <path
       style="color:#000000;clip-rule:nonzero;display:inline;overflow:visible;visibility:visible;opacity:1;isolation:auto;mix-blend-mode:normal;color-interpolation:sRGB;color-interpolation-filters:linearRGB;solid-color:#000000;solid-opacity:1;fill:#000000;fill-opacity:1;fill-rule:nonzero;stroke:none;stroke-width:1.24485695;stroke-linecap:butt;stroke-linejoin:miter;stroke-miterlimit:4;stroke-dasharray:none;stroke-dashoffset:0;stroke-opacity:1;color-rendering:auto;image-rendering:auto;shape-rendering:auto;text-rendering:auto;enable-background:accumulate"
       d="m 433.90552,701.37887 c -2.69265,0.0647 -5.64268,1.18979 -9.16437,3.695 -16.5274,11.75696 -33.08636,23.47712 -43.03405,43.02003 -2.61367,5.13526 -4.73055,10.4189 -5.6236,15.54697 -23.91958,-11.49169 -46.80606,-20.46523 -66.42159,-10.95076 -39.75321,15.89415 -65.04747,5.25342 -90.5061,6.6109 -30.64048,1.63378 -44.19521,4.88287 -82.52132,-6.60691 -25.86858,-17.82655 -73.078531,2.5121 -98.755213,27.08654 -7.260882,5.53824 -15.353104,14.41938 -20.153188,27.04849 -3.214199,8.45663 6.204862,39.06303 7.886642,42.29505 12.9609,24.90808 48.937713,44.17919 90.650289,42.06562 38.41799,-2.80221 72.53715,-2.27818 104.58124,-1.75192 36.64094,0.60173 70.89326,1.46287 111.35404,1.74991 27.78819,0.19714 39.78499,-18.25635 64.74535,-24.24157 24.9586,-5.98698 41.3224,-14.19169 47.64627,-30.82957 0.82643,-7.58711 -1.94168,-23.42655 -5.4153,-29.28752 -2.76226,-4.41194 -5.82891,-10.35303 -9.76917,-15.28061 8.19428,-9.45394 19.37208,-15.22198 53.20976,3.14424 12.1549,6.59737 13.2384,-8.27487 11.858,-22.03573 -1.38036,-13.76085 -1.72,-21.93368 -15.51893,-22.85883 -20.23711,-1.35679 -40.47543,-2.76345 -60.54567,6.07218 -1.35338,0.59585 -2.68158,1.22716 -3.98538,1.88255 3.81822,-9.80938 14.36178,-17.7743 41.56406,-20.2353 13.77368,-1.24611 5.01321,-14.78632 -4.76442,-24.56714 l -0.002,0 c -6.72211,-6.72434 -11.39156,-11.71397 -17.31535,-11.57162 z m 1.68627,13.06563 c 2.69989,0.0502 5.3374,1.09079 8.11094,3.45466 l 0.002,0 c 6.33953,5.40317 12.02056,12.88194 3.09017,13.57031 -30.38531,2.34216 -42.27313,17.08929 -39.27498,26.73207 4.08551,13.14 -9.64086,11.53799 -17.29019,4.03917 -5.94823,-5.83117 4.33625,-18.12071 8.40018,-24.92936 6.44981,-10.79595 15.08893,-12.37463 25.80482,-18.86945 4.11008,-2.49107 7.68575,-4.06199 11.15705,-3.9974 z m 11.11299,42.64554 c 8.00643,0.0435 16.27297,1.08427 22.59247,1.46997 18.71342,1.95081 8.4663,28.10139 2.03074,22.69061 -9.72741,-14.08037 -38.56463,-7.02239 -45.58549,1.01737 -4.78994,5.48509 -10.803,-1.9215 -11.56933,-8.87597 -0.76634,-6.95449 8.33177,-10.99631 15.35844,-13.81262 4.87464,-1.95361 10.94593,-2.5232 17.17317,-2.48936 z m -113.16465,0.37049 c 18.67181,-0.10678 39.69957,8.48831 75.1794,30.81558 8.13735,5.12078 14.64635,12.5138 19.22594,18.57305 2.11614,3.75702 2.33101,29.36813 0.69141,33.13161 -6.03246,13.14736 -13.4396,11.45471 -37.24812,16.18566 -23.81022,4.72955 -38.98324,25.57331 -65.49096,25.41754 -38.59647,-0.22682 -69.84682,-3.55509 -104.79936,-4.03057 -30.56747,-0.41586 -64.53877,1.81826 -101.18651,4.03257 -39.790482,1.67016 -58.756693,-13.03158 -77.128041,-28.9871 -3.057415,0.74675 -15.846834,-23.1784 -15.83135,-36.42915 0.0076,-6.48381 7.003438,-25.20588 18.188535,-30.69541 24.493522,-19.41886 69.526486,-35.48948 94.203076,-21.40286 36.56007,9.07929 55.99267,5.73329 84.93458,2.11285 24.27167,1.27001 42.20066,10.44279 80.12208,-2.11686 10.22533,-4.10855 19.35883,-6.55097 29.13932,-6.60691 z m -222.95879,15.15645 c -24.025826,0.22897 -61.533482,15.57631 -63.393496,32.8463 -3.634001,33.74118 50.64864,62.7574 93.193696,60.81003 18.91593,2.28367 34.85887,1.74818 48.22106,-3.32247 13.36048,-5.07204 24.66201,-6.44687 33.73751,-6.46072 9.27302,-0.0153 20.77231,1.39206 34.33031,6.48075 13.55799,5.09283 29.68817,5.63203 48.76979,3.29845 30.15099,-2.71963 134.28291,-36.48477 82.54736,-81.17751 -15.12324,-13.0645 -49.49416,-13.29016 -63.12516,-10.09362 -42.07677,17.71944 -67.68646,2.07486 -102.79266,1.86051 -30.80573,-0.1881 -68.9503,12.30397 -102.15982,-3.37456 -2.73871,-0.62279 -5.89632,-0.89987 -9.32859,-0.86716 z m -5.15694,7.61627 c 3.35833,0.0437 6.63736,0.46652 9.74914,1.30777 34.8137,19.84106 71.54219,4.03359 103.83609,4.27175 36.77902,0.27126 65.31419,18.14808 112.10321,-4.27576 14.28946,-4.04519 57.57116,2.55308 59.65848,23.8702 3.09905,31.6497 -53.03446,47.11153 -80.01994,51.94808 -20.00338,2.95313 -36.91204,2.26931 -51.12498,-4.17564 -14.21291,-6.43968 -26.2676,-8.22036 -35.98854,-8.20106 -9.51389,0.0175 -21.36183,1.75641 -35.36771,8.17503 -14.00763,6.41687 -30.72052,7.09363 -50.55019,4.20367 -27.70004,-1.86152 -80.558827,-19.61927 -79.917804,-51.26116 9.029378,-15.30763 29.487223,-26.09871 47.622244,-25.86288 z"
       id="rect5389-9-3"
       inkscape:connector-curvature="0"
       sodipodi:nodetypes="cscccsccsscssccccsssccscccccccssscsccsccsscssscccssccsccccssscccccscscsccscsccccccc" />
  </g>
</svg>
