<?xml version="1.0" encoding="UTF-8" standalone="no"?>
<!-- Created with Inkscape (http://www.inkscape.org/) -->

<svg
   xmlns:dc="http://purl.org/dc/elements/1.1/"
   xmlns:cc="http://creativecommons.org/ns#"
   xmlns:rdf="http://www.w3.org/1999/02/22-rdf-syntax-ns#"
   xmlns:svg="http://www.w3.org/2000/svg"
   xmlns="http://www.w3.org/2000/svg"
   xmlns:sodipodi="http://sodipodi.sourceforge.net/DTD/sodipodi-0.dtd"
   xmlns:inkscape="http://www.inkscape.org/namespaces/inkscape"
   width="512"
   height="512"
   viewBox="0 0 512.00001 512.00001"
   id="svg4167"
   version="1.1"
   inkscape:version="0.91 r13725"
   sodipodi:docname="necklace.svg"
   inkscape:export-filename="C:\Users\Lucas\Desktop\temp\icons\game-icons.net\game-icons.net.svg-bt\necklace.png"
   inkscape:export-xdpi="11.25"
   inkscape:export-ydpi="11.25">
  <defs
     id="defs4169" />
  <sodipodi:namedview
     id="base"
     pagecolor="#ffffff"
     bordercolor="#666666"
     borderopacity="1.0"
     inkscape:pageopacity="0.0"
     inkscape:pageshadow="2"
     inkscape:zoom="0.70710678"
     inkscape:cx="58.336853"
     inkscape:cy="334.47461"
     inkscape:document-units="px"
     inkscape:current-layer="layer1"
     showgrid="false"
     inkscape:window-width="1366"
     inkscape:window-height="749"
     inkscape:window-x="-4"
     inkscape:window-y="-4"
     inkscape:window-maximized="1"
     units="px" />
  <metadata
     id="metadata4172">
    <rdf:RDF>
      <cc:Work
         rdf:about="">
        <dc:format>image/svg+xml</dc:format>
        <dc:type
           rdf:resource="http://purl.org/dc/dcmitype/StillImage" />
        <dc:title />
      </cc:Work>
    </rdf:RDF>
  </metadata>
  <g
     inkscape:label="Layer 1"
     inkscape:groupmode="layer"
     id="layer1"
     transform="translate(0,-540.36214)">
    <path
       style="fill:#000000;fill-opacity:1;stroke:none;stroke-opacity:1"
       d="m 256,548.96175 c -80.05463,-2.9e-4 -146.961,1.46168 -146.95902,76.29496 3.17481,46.30858 27.86465,76.73114 47.54509,115.52558 33.32257,65.31759 32.56115,76.92406 49.49925,114.67063 1.2021,2.67887 2.27154,5.57672 3.26042,8.60941 9.3828,2.25126 18.5613,3.80774 26.66327,3.97388 l 2.00887,-4.03565 -47.23619,-96.95065 c -33.42132,-55.0561 -56.50406,-88.42953 -66.04935,-126.8184 -0.14154,-77.16232 26.90042,-77.06946 128.58718,-76.50023 105.16135,0.58878 146.3626,-3.20825 134.08366,77.62623 -25.6198,58.70045 -31.44508,66.39364 -64.32149,128.97857 l -53.75503,97.66227 c 10.87977,-0.36999 23.58384,-3.11829 36.09776,-6.68027 0.71063,-1.71009 1.68689,-3.28111 2.21214,-4.95838 12.57388,-40.15161 22.04378,-61.83182 53.63656,-123.75834 21.51183,-38.20822 36.71817,-66.80147 41.6859,-107.34465 0.002,-74.833 -66.90411,-76.29525 -146.95902,-76.29496 z"
       id="path4194-5"
       inkscape:connector-curvature="0"
       sodipodi:nodetypes="sccscccccsccccsccs" />
    <path
       inkscape:connector-curvature="0"
       d="m 252.16606,844.69777 -14.33253,29.74411 c -23.0214,-0.47555 -55.97006,-13.09642 -74.25244,-19.47097 1.80594,12.72788 15.38893,42.46377 16.16367,58.17426 l -27.592,5.73399 28.22351,30.57998 c -0.22645,25.05887 -17.04484,57.83656 -23.74038,75.43586 5.74728,-0.7331 31.05779,-9.5896 37.44198,-10.1533 l -2.77966,29.983 49.37499,-27.893 c -0.4812,-1.3642 -0.75862,-2.8311 -0.75862,-4.3602 0,-6.9585 5.37904,-12.62994 12.24895,-13.13973 6.87018,0.5095 12.24947,6.18123 12.24947,13.13973 0,1.5314 -0.28305,2.996 -0.75861,4.3602 l 49.3756,27.893 -2.77684,-29.983 c 6.38361,0.5661 31.69467,9.4208 37.44168,10.1533 -6.69554,-17.5993 -23.5026,-50.37699 -23.74037,-75.43586 l 28.22322,-30.57998 -27.592,-5.73399 c 0.77559,-15.71049 14.35971,-45.44638 16.16423,-58.17426 -18.28294,6.37455 -51.23103,18.99711 -74.25272,19.47097 l -14.33282,-29.74411 z m -75.95674,24.24931 c 15.53187,6.21576 39.33961,14.43077 56.19423,14.99179 l -4.92498,8.54083 c 4.98585,1.89651 8.52383,6.61684 8.52383,12.2441 0,7.29422 -5.97997,13.19945 -13.32229,13.19945 -6.59931,0 -12.03154,-4.78911 -13.07009,-11.04931 l -19.95216,4.18054 c -0.69917,-11.07648 -8.66933,-30.4379 -13.44854,-42.1074 z m 151.91434,0 c -4.77976,11.6695 -12.75079,31.03092 -13.4491,42.1074 l -19.95188,-4.18054 c -1.03884,6.2602 -6.47106,11.04931 -13.07008,11.04931 -7.34261,0 -13.32259,-5.90523 -13.32259,-13.19945 0,-5.62726 3.53828,-10.34589 8.52384,-12.2441 l -4.92498,-8.54083 c 16.85461,-0.56046 40.66264,-8.77603 56.19479,-14.99179 z m -75.9576,35.23919 10.92334,18.93342 c -2.31826,0.88316 -3.91473,3.05678 -3.91473,5.67397 0,3.39278 2.77118,6.15178 6.18773,6.15178 3.06924,0 5.57857,-2.16541 6.06176,-5.07643 l 26.708,5.55453 -18.18445,19.71014 c -1.12941,-1.53985 -2.98855,-2.44848 -5.05095,-2.44848 -3.41514,0 -6.18801,2.7004 -6.18801,6.09206 0,3.39278 2.774,6.15233 6.18801,6.15233 0.69916,0 1.33039,-0.14153 1.95596,-0.35949 l 3.09386,26.75754 -22.91978,-10.39261 c 0.22645,-0.63405 0.25476,-1.25963 0.25476,-1.97295 0,-3.04459 -2.19656,-5.49846 -5.11437,-5.97259 -2.91637,0.47554 -5.11435,2.928 -5.11435,5.97259 0,0.71332 0.0224,1.33606 0.25475,1.97295 l -22.91977,10.39261 3.09415,-26.75754 c 0.62556,0.19815 1.25961,0.35949 1.95594,0.35949 3.41543,0 6.18773,-2.75985 6.18773,-6.15233 0,-3.39278 -2.77118,-6.09206 -6.18773,-6.09206 -2.06351,0 -3.92152,0.91146 -5.05122,2.44848 l -18.18418,-19.71014 26.70856,-5.55453 c 0.48121,2.91157 2.99198,5.07643 6.06121,5.07643 3.41515,0 6.18745,-2.75985 6.18745,-6.15178 0,-2.61831 -1.59647,-4.79109 -3.91418,-5.67397 l 10.92279,-18.93342 z m -50.89051,51.30548 c 2.21355,0 4.27056,0.50103 6.12461,1.37567 0.39345,0.16985 0.76709,0.37932 1.13508,0.59727 0.14153,0.11323 0.30286,0.14154 0.44158,0.25476 0.0224,0.0216 0.11322,0.0223 0.11322,0.0849 3.83464,2.31262 6.37739,6.49657 6.37739,11.28879 0,7.29478 -5.91713,13.20001 -13.25917,13.20001 -1.50023,0 -2.94669,-0.25476 -4.29376,-0.71615 l -2.77967,23.8912 c -2.90422,0.3029 -17.41056,3.8921 -20.14153,4.2406 3.61526,-8.7517 8.04603,-24.87262 12.56482,-39.30085 -0.11322,-0.59159 -0.11322,-1.17469 -0.11322,-1.79177 0,-3.01913 1.08978,-5.7903 2.90477,-8.00356 0.0211,-0.0849 0.0566,-0.14154 0.0849,-0.25476 l 0.0849,0.0849 c 2.53341,-2.98205 6.43824,-4.89752 10.79682,-4.89752 z m 101.78131,0 c 4.35888,0 8.26343,1.91633 10.7971,4.89781 l 0.0849,-0.0849 c 0.0209,0.0849 0.0566,0.14153 0.0849,0.25476 1.81727,2.21354 2.9045,4.98472 2.9045,8.00299 0,0.61708 -0.0566,1.20019 -0.11322,1.79179 4.51821,14.42822 8.94955,30.5489 12.5648,39.3008 -2.73153,-0.348 -17.23759,-3.9354 -20.14152,-4.2406 l -2.77967,-23.89116 c -1.34454,0.4529 -2.79381,0.71897 -4.29319,0.71897 -7.34262,0 -13.25946,-5.90494 -13.25946,-13.19972 0,-4.79251 2.5419,-8.97588 6.37711,-11.2885 0.0221,-0.0222 0.11322,-0.0222 0.11322,-0.0849 0.11323,-0.11323 0.29722,-0.14152 0.44158,-0.25475 0.37081,-0.22644 0.74446,-0.41327 1.13509,-0.60009 1.85404,-0.87183 3.91217,-1.37284 6.12488,-1.37284 z"
       id="path4771" />
  </g>
</svg>
